<svg xmlns="http://www.w3.org/2000/svg" xmlns:xlink="http://www.w3.org/1999/xlink" width="108" zoomAndPan="magnify" viewBox="0 0 810 809.999993" height="108" preserveAspectRatio="xMidYMid meet" version="1.0"><defs><clipPath id="0e283ebf30"><path d="M 7.59375 6 L 802.59375 6 L 802.59375 802 L 7.59375 802 Z M 7.59375 6 " clip-rule="nonzero"/></clipPath><clipPath id="fe7fc288ae"><path d="M 520.015625 704.160156 L 589 704.160156 L 589 753.660156 L 520.015625 753.660156 Z M 520.015625 704.160156 " clip-rule="nonzero"/></clipPath></defs><g clip-path="url(#0e283ebf30)"><path fill="#f9dfaf" d="M 802.570312 403.730469 C 802.570312 410.234375 802.414062 416.734375 802.09375 423.230469 C 801.773438 429.726562 801.296875 436.210938 800.65625 442.683594 C 800.019531 449.15625 799.222656 455.609375 798.269531 462.042969 C 797.316406 468.476562 796.203125 474.882812 794.933594 481.261719 C 793.664062 487.640625 792.238281 493.984375 790.660156 500.292969 C 789.078125 506.601562 787.34375 512.867188 785.457031 519.089844 C 783.566406 525.3125 781.527344 531.488281 779.335938 537.609375 C 777.144531 543.734375 774.804688 549.800781 772.316406 555.808594 C 769.824219 561.816406 767.191406 567.761719 764.410156 573.640625 C 761.628906 579.519531 758.703125 585.328125 755.636719 591.0625 C 752.570312 596.800781 749.363281 602.457031 746.019531 608.035156 C 742.675781 613.613281 739.195312 619.105469 735.582031 624.511719 C 731.96875 629.921875 728.222656 635.238281 724.347656 640.460938 C 720.472656 645.683594 716.472656 650.808594 712.347656 655.835938 C 708.21875 660.863281 703.972656 665.789062 699.601562 670.605469 C 695.234375 675.425781 690.75 680.132812 686.148438 684.734375 C 681.550781 689.332031 676.839844 693.816406 672.019531 698.183594 C 667.199219 702.550781 662.277344 706.796875 657.246094 710.921875 C 652.21875 715.050781 647.089844 719.050781 641.867188 722.921875 C 636.640625 726.796875 631.324219 730.542969 625.914062 734.15625 C 620.507812 737.765625 615.011719 741.246094 609.433594 744.589844 C 603.851562 747.933594 598.195312 751.136719 592.457031 754.203125 C 586.722656 757.269531 580.910156 760.191406 575.03125 762.972656 C 569.152344 765.753906 563.207031 768.390625 557.195312 770.878906 C 551.183594 773.367188 545.117188 775.707031 538.992188 777.898438 C 532.867188 780.089844 526.691406 782.128906 520.46875 784.015625 C 514.242188 785.902344 507.976562 787.636719 501.664062 789.21875 C 495.355469 790.796875 489.007812 792.222656 482.628906 793.492188 C 476.25 794.761719 469.839844 795.871094 463.40625 796.828125 C 456.972656 797.78125 450.515625 798.578125 444.042969 799.214844 C 437.570312 799.851562 431.085938 800.328125 424.585938 800.648438 C 418.089844 800.96875 411.589844 801.128906 405.082031 801.128906 C 398.578125 801.128906 392.078125 800.96875 385.578125 800.648438 C 379.082031 800.328125 372.597656 799.851562 366.121094 799.214844 C 359.648438 798.578125 353.195312 797.78125 346.757812 796.828125 C 340.324219 795.871094 333.917969 794.761719 327.535156 793.492188 C 321.15625 792.222656 314.8125 790.796875 308.5 789.21875 C 302.191406 787.636719 295.921875 785.902344 289.699219 784.015625 C 283.472656 782.128906 277.296875 780.089844 271.171875 777.898438 C 265.046875 775.707031 258.980469 773.367188 252.96875 770.878906 C 246.960938 768.390625 241.015625 765.753906 235.132812 762.972656 C 229.253906 760.191406 223.445312 757.269531 217.707031 754.203125 C 211.96875 751.136719 206.3125 747.933594 200.734375 744.589844 C 195.152344 741.246094 189.660156 737.765625 184.25 734.15625 C 178.839844 730.542969 173.523438 726.796875 168.300781 722.921875 C 163.074219 719.050781 157.945312 715.050781 152.917969 710.921875 C 147.890625 706.796875 142.964844 702.550781 138.144531 698.183594 C 133.324219 693.816406 128.617188 689.332031 124.015625 684.734375 C 119.414062 680.132812 114.929688 675.425781 110.5625 670.605469 C 106.195312 665.789062 101.945312 660.863281 97.820312 655.835938 C 93.691406 650.808594 89.691406 645.683594 85.816406 640.460938 C 81.941406 635.238281 78.195312 629.921875 74.582031 624.511719 C 70.96875 619.105469 67.488281 613.613281 64.144531 608.035156 C 60.800781 602.457031 57.59375 596.800781 54.527344 591.0625 C 51.460938 585.328125 48.539062 579.519531 45.757812 573.640625 C 42.976562 567.761719 40.339844 561.816406 37.851562 555.808594 C 35.363281 549.800781 33.019531 543.734375 30.828125 537.609375 C 28.636719 531.488281 26.597656 525.3125 24.710938 519.089844 C 22.820312 512.867188 21.085938 506.601562 19.507812 500.292969 C 17.925781 493.984375 16.5 487.640625 15.230469 481.261719 C 13.960938 474.882812 12.851562 468.476562 11.894531 462.042969 C 10.941406 455.609375 10.144531 449.15625 9.507812 442.683594 C 8.871094 436.210938 8.390625 429.726562 8.074219 423.230469 C 7.753906 416.734375 7.59375 410.234375 7.59375 403.730469 C 7.59375 397.230469 7.753906 390.730469 8.074219 384.234375 C 8.390625 377.738281 8.871094 371.253906 9.507812 364.78125 C 10.144531 358.308594 10.941406 351.855469 11.894531 345.421875 C 12.851562 338.988281 13.960938 332.582031 15.230469 326.203125 C 16.5 319.824219 17.925781 313.480469 19.507812 307.171875 C 21.085938 300.863281 22.820312 294.597656 24.710938 288.375 C 26.597656 282.152344 28.636719 275.976562 30.828125 269.855469 C 33.019531 263.730469 35.363281 257.664062 37.851562 251.65625 C 40.339844 245.648438 42.976562 239.703125 45.757812 233.824219 C 48.539062 227.945312 51.460938 222.136719 54.527344 216.402344 C 57.59375 210.664062 60.800781 205.007812 64.144531 199.429688 C 67.488281 193.851562 70.96875 188.359375 74.582031 182.953125 C 78.195312 177.542969 81.941406 172.226562 85.816406 167.003906 C 89.691406 161.78125 93.691406 156.65625 97.820312 151.628906 C 101.945312 146.601562 106.195312 141.675781 110.5625 136.859375 C 114.929688 132.039062 119.414062 127.332031 124.015625 122.730469 C 128.617188 118.132812 133.324219 113.648438 138.144531 109.28125 C 142.964844 104.914062 147.890625 100.667969 152.917969 96.542969 C 157.945312 92.414062 163.074219 88.414062 168.300781 84.542969 C 173.523438 80.667969 178.839844 76.921875 184.25 73.308594 C 189.660156 69.695312 195.152344 66.21875 200.734375 62.875 C 206.3125 59.53125 211.96875 56.328125 217.707031 53.261719 C 223.445312 50.195312 229.253906 47.273438 235.132812 44.492188 C 241.015625 41.710938 246.960938 39.074219 252.96875 36.585938 C 258.980469 34.097656 265.046875 31.757812 271.171875 29.566406 C 277.296875 27.375 283.472656 25.335938 289.699219 23.449219 C 295.921875 21.5625 302.191406 19.828125 308.5 18.246094 C 314.8125 16.667969 321.15625 15.242188 327.535156 13.972656 C 333.917969 12.703125 340.324219 11.59375 346.757812 10.636719 C 353.195312 9.683594 359.648438 8.886719 366.121094 8.25 C 372.597656 7.613281 379.082031 7.136719 385.578125 6.816406 C 392.078125 6.496094 398.578125 6.335938 405.082031 6.335938 C 411.589844 6.335938 418.089844 6.496094 424.585938 6.816406 C 431.085938 7.136719 437.570312 7.613281 444.042969 8.25 C 450.515625 8.886719 456.972656 9.683594 463.40625 10.636719 C 469.839844 11.59375 476.25 12.703125 482.628906 13.972656 C 489.007812 15.242188 495.355469 16.667969 501.664062 18.246094 C 507.976562 19.828125 514.242188 21.5625 520.46875 23.449219 C 526.691406 25.335938 532.867188 27.375 538.992188 29.566406 C 545.117188 31.757812 551.183594 34.097656 557.195312 36.585938 C 563.207031 39.074219 569.152344 41.710938 575.03125 44.492188 C 580.910156 47.273438 586.722656 50.195312 592.457031 53.261719 C 598.195312 56.328125 603.851562 59.53125 609.433594 62.875 C 615.011719 66.21875 620.507812 69.695312 625.914062 73.308594 C 631.324219 76.921875 636.640625 80.667969 641.867188 84.542969 C 647.089844 88.414062 652.21875 92.414062 657.246094 96.542969 C 662.277344 100.667969 667.199219 104.914062 672.019531 109.28125 C 676.839844 113.648438 681.550781 118.132812 686.148438 122.730469 C 690.75 127.332031 695.234375 132.039062 699.601562 136.859375 C 703.972656 141.675781 708.21875 146.601562 712.347656 151.628906 C 716.472656 156.65625 720.472656 161.78125 724.347656 167.003906 C 728.222656 172.226562 731.96875 177.542969 735.582031 182.953125 C 739.195312 188.359375 742.675781 193.851562 746.019531 199.429688 C 749.363281 205.007812 752.570312 210.664062 755.636719 216.402344 C 758.703125 222.136719 761.628906 227.945312 764.410156 233.824219 C 767.191406 239.703125 769.824219 245.648438 772.316406 251.65625 C 774.804688 257.664062 777.144531 263.730469 779.335938 269.855469 C 781.527344 275.976562 783.566406 282.152344 785.457031 288.375 C 787.34375 294.597656 789.078125 300.863281 790.660156 307.171875 C 792.242188 313.480469 793.664062 319.824219 794.933594 326.203125 C 796.203125 332.582031 797.316406 338.988281 798.269531 345.421875 C 799.222656 351.855469 800.019531 358.308594 800.65625 364.78125 C 801.296875 371.253906 801.773438 377.738281 802.09375 384.234375 C 802.414062 390.730469 802.570312 397.230469 802.570312 403.730469 Z M 802.570312 403.730469 " fill-opacity="1" fill-rule="nonzero"/></g><path fill="#302545" d="M 790.480469 809.726562 L 19.683594 809.726562 C 19.683594 809.726562 19.683594 650.601562 74.742188 613.90625 C 104.40625 594.125 198.050781 559.625 278.054688 532.03125 C 346.570312 508.402344 405.082031 489.835938 405.082031 489.835938 C 405.082031 489.835938 463.453125 508.414062 531.804688 531.941406 C 611.917969 559.546875 705.722656 594.101562 735.421875 613.90625 C 790.480469 650.601562 790.480469 809.726562 790.480469 809.726562 Z M 790.480469 809.726562 " fill-opacity="1" fill-rule="nonzero"/><path fill="#302545" d="M 628.5 523.320312 C 628.5 525.429688 628.40625 527.535156 628.226562 529.640625 C 628.046875 531.746094 627.773438 533.851562 627.414062 535.949219 C 627.050781 538.046875 626.601562 540.136719 626.058594 542.222656 C 625.519531 544.308594 624.890625 546.386719 624.167969 548.453125 C 623.449219 550.523438 622.640625 552.578125 621.746094 554.625 C 620.851562 556.667969 619.867188 558.699219 618.796875 560.71875 C 617.726562 562.734375 616.570312 564.738281 615.328125 566.722656 C 614.085938 568.707031 612.761719 570.675781 611.347656 572.621094 C 609.9375 574.570312 608.445312 576.496094 606.867188 578.402344 C 605.292969 580.308594 603.636719 582.191406 601.898438 584.050781 C 600.160156 585.910156 598.34375 587.746094 596.445312 589.554688 C 594.550781 591.363281 592.578125 593.144531 590.53125 594.894531 C 588.480469 596.648438 586.359375 598.371094 584.164062 600.066406 C 581.96875 601.757812 579.699219 603.421875 577.359375 605.050781 C 575.023438 606.679688 572.613281 608.277344 570.136719 609.839844 C 567.664062 611.402344 565.121094 612.929688 562.515625 614.417969 C 559.90625 615.910156 557.238281 617.363281 554.503906 618.78125 C 551.773438 620.195312 548.984375 621.570312 546.132812 622.910156 C 543.28125 624.246094 540.375 625.542969 537.414062 626.800781 C 534.453125 628.054688 531.441406 629.269531 528.375 630.441406 C 525.308594 631.613281 522.195312 632.742188 519.03125 633.824219 C 515.871094 634.90625 512.664062 635.945312 509.410156 636.941406 C 506.160156 637.933594 502.867188 638.882812 499.535156 639.785156 C 496.203125 640.6875 492.832031 641.539062 489.425781 642.347656 C 486.019531 643.152344 482.582031 643.914062 479.109375 644.621094 C 475.636719 645.332031 472.136719 645.992188 468.609375 646.605469 C 465.082031 647.21875 461.53125 647.78125 457.953125 648.292969 C 454.375 648.804688 450.78125 649.265625 447.164062 649.679688 C 443.546875 650.089844 439.917969 650.449219 436.269531 650.757812 C 432.621094 651.070312 428.964844 651.328125 425.296875 651.535156 C 421.625 651.738281 417.949219 651.894531 414.269531 652 C 410.585938 652.101562 406.902344 652.152344 403.214844 652.152344 C 399.527344 652.152344 395.84375 652.101562 392.160156 652 C 388.476562 651.894531 384.800781 651.738281 381.132812 651.535156 C 377.460938 651.328125 373.804688 651.070312 370.15625 650.757812 C 366.511719 650.449219 362.878906 650.089844 359.261719 649.679688 C 355.648438 649.265625 352.050781 648.804688 348.472656 648.292969 C 344.898438 647.78125 341.34375 647.21875 337.816406 646.605469 C 334.289062 645.992188 330.789062 645.332031 327.316406 644.621094 C 323.847656 643.914062 320.40625 643.152344 317 642.347656 C 313.59375 641.539062 310.226562 640.6875 306.890625 639.785156 C 303.558594 638.882812 300.265625 637.933594 297.015625 636.941406 C 293.761719 635.945312 290.554688 634.90625 287.394531 633.824219 C 284.230469 632.742188 281.117188 631.613281 278.050781 630.441406 C 274.988281 629.269531 271.972656 628.054688 269.011719 626.800781 C 266.050781 625.542969 263.144531 624.246094 260.292969 622.910156 C 257.445312 621.570312 254.652344 620.195312 251.921875 618.78125 C 249.191406 617.363281 246.519531 615.910156 243.914062 614.417969 C 241.304688 612.929688 238.765625 611.402344 236.289062 609.839844 C 233.8125 608.277344 231.40625 606.679688 229.066406 605.050781 C 226.726562 603.421875 224.460938 601.757812 222.261719 600.066406 C 220.066406 598.371094 217.945312 596.648438 215.894531 594.894531 C 213.847656 593.144531 211.875 591.363281 209.980469 589.554688 C 208.085938 587.746094 206.269531 585.910156 204.53125 584.050781 C 202.792969 582.191406 201.136719 580.308594 199.558594 578.402344 C 197.980469 576.496094 196.488281 574.570312 195.078125 572.621094 C 193.667969 570.675781 192.339844 568.707031 191.097656 566.722656 C 189.855469 564.738281 188.699219 562.734375 187.628906 560.71875 C 186.558594 558.699219 185.578125 556.667969 184.679688 554.625 C 183.785156 552.578125 182.976562 550.523438 182.257812 548.453125 C 181.539062 546.386719 180.910156 544.308594 180.367188 542.222656 C 179.828125 540.136719 179.375 538.046875 179.015625 535.949219 C 178.652344 533.851562 178.382812 531.746094 178.199219 529.640625 C 178.019531 527.535156 177.929688 525.429688 177.929688 523.320312 C 177.929688 521.210938 178.019531 519.105469 178.199219 517 C 178.382812 514.894531 178.652344 512.789062 179.015625 510.691406 C 179.375 508.59375 179.828125 506.503906 180.367188 504.417969 C 180.910156 502.332031 181.539062 500.253906 182.257812 498.1875 C 182.976562 496.117188 183.785156 494.0625 184.679688 492.015625 C 185.578125 489.972656 186.558594 487.941406 187.628906 485.921875 C 188.699219 483.902344 189.855469 481.902344 191.097656 479.917969 C 192.339844 477.933594 193.667969 475.964844 195.078125 474.019531 C 196.488281 472.070312 197.980469 470.144531 199.558594 468.238281 C 201.136719 466.332031 202.792969 464.449219 204.53125 462.589844 C 206.269531 460.730469 208.085938 458.894531 209.980469 457.085938 C 211.875 455.277344 213.847656 453.496094 215.894531 451.746094 C 217.945312 449.992188 220.066406 448.269531 222.261719 446.574219 C 224.460938 444.882812 226.726562 443.21875 229.066406 441.589844 C 231.40625 439.960938 233.8125 438.363281 236.289062 436.800781 C 238.765625 435.238281 241.304688 433.710938 243.914062 432.222656 C 246.519531 430.730469 249.191406 429.277344 251.921875 427.859375 C 254.652344 426.445312 257.445312 425.070312 260.292969 423.730469 C 263.144531 422.394531 266.050781 421.097656 269.011719 419.839844 C 271.972656 418.585938 274.988281 417.371094 278.050781 416.199219 C 281.117188 415.027344 284.230469 413.898438 287.394531 412.816406 C 290.554688 411.730469 293.761719 410.695312 297.015625 409.699219 C 300.265625 408.707031 303.558594 407.757812 306.890625 406.855469 C 310.226562 405.953125 313.59375 405.101562 317 404.292969 C 320.40625 403.488281 323.847656 402.726562 327.316406 402.019531 C 330.789062 401.308594 334.289062 400.648438 337.816406 400.035156 C 341.34375 399.421875 344.898438 398.859375 348.472656 398.347656 C 352.050781 397.835938 355.648438 397.375 359.261719 396.960938 C 362.878906 396.550781 366.511719 396.191406 370.15625 395.882812 C 373.804688 395.570312 377.460938 395.3125 381.132812 395.105469 C 384.800781 394.902344 388.476562 394.746094 392.160156 394.640625 C 395.84375 394.539062 399.527344 394.488281 403.214844 394.488281 C 406.902344 394.488281 410.585938 394.539062 414.269531 394.640625 C 417.949219 394.746094 421.625 394.902344 425.296875 395.105469 C 428.964844 395.3125 432.621094 395.570312 436.269531 395.882812 C 439.917969 396.191406 443.546875 396.550781 447.164062 396.960938 C 450.78125 397.375 454.375 397.835938 457.953125 398.347656 C 461.53125 398.859375 465.082031 399.421875 468.609375 400.035156 C 472.136719 400.648438 475.636719 401.308594 479.109375 402.019531 C 482.582031 402.726562 486.019531 403.488281 489.425781 404.292969 C 492.832031 405.101562 496.203125 405.953125 499.535156 406.855469 C 502.867188 407.757812 506.160156 408.707031 509.410156 409.699219 C 512.664062 410.695312 515.871094 411.730469 519.03125 412.816406 C 522.195312 413.898438 525.308594 415.027344 528.375 416.199219 C 531.441406 417.371094 534.453125 418.585938 537.414062 419.839844 C 540.375 421.097656 543.28125 422.394531 546.132812 423.730469 C 548.984375 425.070312 551.773438 426.445312 554.503906 427.859375 C 557.238281 429.277344 559.90625 430.730469 562.515625 432.222656 C 565.121094 433.710938 567.664062 435.238281 570.136719 436.800781 C 572.613281 438.363281 575.023438 439.960938 577.359375 441.589844 C 579.699219 443.21875 581.96875 444.882812 584.164062 446.574219 C 586.359375 448.269531 588.480469 449.992188 590.53125 451.746094 C 592.578125 453.496094 594.550781 455.277344 596.445312 457.085938 C 598.34375 458.894531 600.160156 460.730469 601.898438 462.589844 C 603.636719 464.449219 605.292969 466.332031 606.867188 468.238281 C 608.445312 470.144531 609.9375 472.070312 611.347656 474.019531 C 612.761719 475.964844 614.085938 477.933594 615.328125 479.917969 C 616.570312 481.902344 617.726562 483.902344 618.796875 485.921875 C 619.867188 487.941406 620.851562 489.972656 621.746094 492.015625 C 622.640625 494.0625 623.449219 496.117188 624.167969 498.1875 C 624.890625 500.253906 625.519531 502.332031 626.058594 504.417969 C 626.601562 506.503906 627.050781 508.59375 627.414062 510.691406 C 627.773438 512.789062 628.046875 514.894531 628.226562 517 C 628.40625 519.105469 628.5 521.210938 628.5 523.320312 Z M 628.5 523.320312 " fill-opacity="1" fill-rule="nonzero"/><path fill="#3d2031" d="M 520.195312 308.734375 C 520.195312 308.734375 569 345.277344 555.175781 362.554688 C 541.347656 379.832031 500.300781 353.386719 500.300781 353.386719 Z M 520.195312 308.734375 " fill-opacity="1" fill-rule="nonzero"/><path fill="#3d2031" d="M 508.421875 350.269531 C 508.421875 350.269531 552.867188 392.007812 537.183594 407.632812 C 521.496094 423.261719 483.621094 392.433594 483.621094 392.433594 Z M 508.421875 350.269531 " fill-opacity="1" fill-rule="nonzero"/><path fill="#3d2031" d="M 487.546875 383.875 C 487.546875 383.875 519.824219 435.589844 500.660156 446.679688 C 481.5 457.773438 452.828125 418.265625 452.828125 418.265625 Z M 487.546875 383.875 " fill-opacity="1" fill-rule="nonzero"/><path fill="#3d2031" d="M 269.738281 322.796875 C 269.738281 322.796875 225.335938 364.578125 241.03125 380.246094 C 256.730469 395.917969 294.527344 364.949219 294.527344 364.949219 Z M 269.738281 322.796875 " fill-opacity="1" fill-rule="nonzero"/><path fill="#3d2031" d="M 286.089844 362.761719 C 286.089844 362.761719 246.585938 409.195312 263.933594 422.976562 C 281.28125 436.757812 315.449219 401.886719 315.449219 401.886719 Z M 286.089844 362.761719 " fill-opacity="1" fill-rule="nonzero"/><path fill="#3d2031" d="M 310.609375 393.808594 C 310.609375 393.808594 284.308594 448.8125 304.59375 457.695312 C 324.882812 466.582031 348.953125 424.136719 348.953125 424.136719 Z M 310.609375 393.808594 " fill-opacity="1" fill-rule="nonzero"/><path fill="#ffffff" d="M 337.859375 780.953125 L 337.550781 780.953125 C 337.269531 780.933594 336.992188 780.886719 336.71875 780.8125 C 336.445312 780.738281 336.179688 780.640625 335.929688 780.511719 C 335.675781 780.386719 335.4375 780.238281 335.210938 780.0625 C 334.988281 779.890625 334.78125 779.695312 334.597656 779.484375 C 334.410156 779.269531 334.25 779.039062 334.109375 778.792969 C 333.96875 778.546875 333.851562 778.289062 333.761719 778.023438 C 333.671875 777.753906 333.609375 777.480469 333.574219 777.199219 C 333.539062 776.917969 333.53125 776.636719 333.550781 776.351562 L 343.234375 637.707031 C 343.257812 637.425781 343.308594 637.152344 343.386719 636.882812 C 343.464844 636.613281 343.566406 636.351562 343.695312 636.101562 C 343.824219 635.851562 343.972656 635.617188 344.148438 635.394531 C 344.324219 635.175781 344.515625 634.972656 344.730469 634.792969 C 344.941406 634.609375 345.171875 634.449219 345.417969 634.3125 C 345.660156 634.171875 345.917969 634.058594 346.183594 633.972656 C 346.449219 633.882812 346.722656 633.820312 347 633.785156 C 347.28125 633.75 347.558594 633.742188 347.839844 633.761719 C 348.121094 633.78125 348.394531 633.828125 348.667969 633.902344 C 348.9375 633.976562 349.199219 634.074219 349.449219 634.199219 C 349.703125 634.324219 349.941406 634.472656 350.164062 634.640625 C 350.386719 634.8125 350.589844 635.003906 350.777344 635.214844 C 350.960938 635.425781 351.125 635.652344 351.265625 635.894531 C 351.410156 636.136719 351.527344 636.390625 351.617188 636.65625 C 351.710938 636.921875 351.773438 637.191406 351.8125 637.46875 C 351.851562 637.746094 351.863281 638.027344 351.851562 638.308594 L 342.152344 776.945312 C 342.117188 777.488281 341.980469 778.003906 341.746094 778.5 C 341.511719 778.992188 341.195312 779.421875 340.796875 779.796875 C 340.398438 780.167969 339.945312 780.453125 339.4375 780.652344 C 338.929688 780.855469 338.402344 780.953125 337.859375 780.953125 Z M 337.859375 780.953125 " fill-opacity="1" fill-rule="nonzero"/><path fill="#ffffff" d="M 464.917969 780.953125 C 464.371094 780.953125 463.847656 780.855469 463.339844 780.652344 C 462.832031 780.453125 462.378906 780.167969 461.980469 779.796875 C 461.582031 779.421875 461.265625 778.992188 461.03125 778.5 C 460.796875 778.003906 460.660156 777.488281 460.621094 776.945312 L 450.925781 638.296875 C 450.90625 638.015625 450.914062 637.730469 450.949219 637.449219 C 450.984375 637.167969 451.046875 636.894531 451.136719 636.625 C 451.226562 636.355469 451.339844 636.101562 451.480469 635.855469 C 451.621094 635.609375 451.785156 635.378906 451.972656 635.164062 C 452.15625 634.949219 452.363281 634.757812 452.585938 634.582031 C 452.808594 634.410156 453.046875 634.257812 453.300781 634.132812 C 453.554688 634.003906 453.820312 633.90625 454.09375 633.832031 C 454.367188 633.757812 454.644531 633.707031 454.925781 633.6875 C 455.210938 633.667969 455.492188 633.675781 455.773438 633.714844 C 456.054688 633.75 456.328125 633.8125 456.597656 633.902344 C 456.867188 633.992188 457.125 634.109375 457.371094 634.25 C 457.617188 634.390625 457.84375 634.550781 458.058594 634.738281 C 458.273438 634.925781 458.464844 635.128906 458.640625 635.355469 C 458.8125 635.578125 458.960938 635.816406 459.089844 636.070312 C 459.214844 636.324219 459.316406 636.589844 459.390625 636.859375 C 459.464844 637.132812 459.511719 637.414062 459.53125 637.695312 L 469.226562 776.34375 C 469.242188 776.625 469.230469 776.90625 469.191406 777.183594 C 469.152344 777.464844 469.085938 777.734375 468.996094 778.003906 C 468.90625 778.269531 468.789062 778.523438 468.648438 778.769531 C 468.507812 779.015625 468.34375 779.242188 468.160156 779.453125 C 467.972656 779.667969 467.769531 779.859375 467.546875 780.035156 C 467.324219 780.207031 467.089844 780.359375 466.835938 780.484375 C 466.585938 780.613281 466.324219 780.714844 466.054688 780.792969 C 465.78125 780.871094 465.503906 780.917969 465.222656 780.941406 Z M 464.917969 780.953125 " fill-opacity="1" fill-rule="nonzero"/><path fill="#3d2031" d="M 547.183594 259.785156 C 547.183594 259.785156 565.699219 216.773438 558.957031 168.054688 C 547.972656 88.921875 375.480469 50.761719 322.882812 70.640625 C 270.285156 90.515625 314.136719 178.828125 314.136719 178.828125 Z M 547.183594 259.785156 " fill-opacity="1" fill-rule="nonzero"/><path fill="#3d2031" d="M 241.207031 276.964844 C 241.207031 276.964844 218.644531 240.289062 219.882812 191.1875 C 221.902344 111.324219 388.390625 50.082031 442.871094 63.960938 C 497.351562 77.839844 463.738281 170.425781 463.738281 170.425781 Z M 241.207031 276.964844 " fill-opacity="1" fill-rule="nonzero"/><path fill="#fe9780" d="M 535.445312 238.957031 C 535.445312 238.957031 565.285156 216.34375 588.820312 241.339844 C 612.351562 266.332031 587.726562 329.300781 540.601562 330.753906 C 493.480469 332.207031 499.644531 283.074219 499.644531 283.074219 Z M 535.445312 238.957031 " fill-opacity="1" fill-rule="nonzero"/><path fill="#fe9780" d="M 250.511719 254.953125 C 250.511719 254.953125 218.328125 235.832031 197.734375 263.304688 C 177.140625 290.777344 208.667969 350.597656 255.667969 346.753906 C 302.671875 342.90625 291.042969 294.789062 291.042969 294.789062 Z M 250.511719 254.953125 " fill-opacity="1" fill-rule="nonzero"/><path fill="#db6356" d="M 538.339844 294.789062 C 538.097656 294.785156 537.855469 294.757812 537.621094 294.699219 C 537.222656 294.609375 536.855469 294.441406 536.527344 294.203125 C 536.195312 293.964844 535.921875 293.671875 535.707031 293.324219 C 535.492188 292.976562 535.351562 292.601562 535.289062 292.195312 C 535.222656 291.792969 535.238281 291.394531 535.335938 290.996094 C 536.996094 284.734375 539.492188 278.824219 542.8125 273.261719 C 550.125 261.109375 560.113281 253.820312 571.710938 252.179688 C 572.125 252.101562 572.539062 252.109375 572.949219 252.203125 C 573.359375 252.292969 573.734375 252.460938 574.078125 252.707031 C 574.417969 252.953125 574.699219 253.257812 574.914062 253.617188 C 575.132812 253.976562 575.269531 254.367188 575.328125 254.78125 C 575.386719 255.199219 575.363281 255.609375 575.25 256.015625 C 575.140625 256.421875 574.957031 256.789062 574.695312 257.121094 C 574.433594 257.449219 574.117188 257.714844 573.75 257.917969 C 573.378906 258.117188 572.984375 258.238281 572.566406 258.277344 C 548.964844 261.609375 541.359375 292.15625 541.28125 292.429688 C 541.203125 292.761719 541.070312 293.070312 540.890625 293.359375 C 540.707031 293.648438 540.480469 293.898438 540.214844 294.113281 C 539.949219 294.328125 539.65625 294.492188 539.335938 294.605469 C 539.011719 294.722656 538.683594 294.78125 538.339844 294.789062 Z M 538.339844 294.789062 " fill-opacity="1" fill-rule="nonzero"/><path fill="#db6356" d="M 545.75 277.523438 C 545.390625 277.523438 545.039062 277.460938 544.699219 277.339844 C 544.359375 277.21875 544.050781 277.042969 543.773438 276.808594 C 543.496094 276.578125 543.265625 276.308594 543.082031 275.996094 C 542.898438 275.683594 542.773438 275.351562 542.710938 274.996094 C 542.644531 274.640625 542.644531 274.285156 542.703125 273.925781 C 542.761719 273.570312 542.882812 273.234375 543.058594 272.921875 C 543.238281 272.605469 543.464844 272.332031 543.738281 272.097656 C 544.015625 271.863281 544.320312 271.683594 544.660156 271.554688 C 555.011719 267.664062 564.816406 267.664062 573.777344 271.554688 C 574.15625 271.714844 574.484375 271.945312 574.769531 272.238281 C 575.058594 272.53125 575.277344 272.867188 575.425781 273.25 C 575.578125 273.628906 575.652344 274.023438 575.644531 274.433594 C 575.636719 274.84375 575.554688 275.234375 575.390625 275.613281 C 575.230469 275.988281 575 276.316406 574.707031 276.601562 C 574.410156 276.886719 574.074219 277.105469 573.695312 277.257812 C 573.3125 277.40625 572.917969 277.476562 572.507812 277.472656 C 572.097656 277.464844 571.707031 277.378906 571.328125 277.214844 C 563.886719 273.992188 555.632812 274.035156 546.824219 277.347656 C 546.476562 277.46875 546.121094 277.527344 545.75 277.523438 Z M 545.75 277.523438 " fill-opacity="1" fill-rule="nonzero"/><path fill="#db6356" d="M 256.039062 310.644531 C 255.722656 310.644531 255.414062 310.597656 255.109375 310.5 C 254.808594 310.40625 254.527344 310.265625 254.269531 310.082031 C 254.007812 309.902344 253.78125 309.683594 253.589844 309.429688 C 253.398438 309.175781 253.25 308.902344 253.144531 308.601562 C 252.980469 308.152344 242.003906 278.84375 218.230469 278.175781 C 217.820312 278.167969 217.429688 278.078125 217.058594 277.910156 C 216.683594 277.742188 216.359375 277.511719 216.078125 277.214844 C 215.796875 276.917969 215.582031 276.578125 215.4375 276.195312 C 215.292969 275.8125 215.222656 275.417969 215.234375 275.007812 C 215.253906 274.601562 215.347656 274.214844 215.519531 273.847656 C 215.6875 273.476562 215.921875 273.152344 216.214844 272.875 C 216.511719 272.597656 216.847656 272.382812 217.226562 272.234375 C 217.605469 272.089844 218 272.019531 218.40625 272.023438 C 230.113281 272.351562 240.859375 278.472656 249.480469 289.730469 C 253.421875 294.878906 256.574219 300.476562 258.9375 306.515625 C 259.078125 306.898438 259.136719 307.292969 259.117188 307.703125 C 259.097656 308.109375 259.003906 308.5 258.832031 308.871094 C 258.65625 309.238281 258.417969 309.5625 258.117188 309.835938 C 257.816406 310.113281 257.472656 310.320312 257.089844 310.460938 C 256.75 310.582031 256.402344 310.640625 256.039062 310.644531 Z M 256.039062 310.644531 " fill-opacity="1" fill-rule="nonzero"/><path fill="#db6356" d="M 220.078125 297.191406 C 219.738281 297.195312 219.40625 297.144531 219.082031 297.035156 C 218.757812 296.929688 218.460938 296.769531 218.191406 296.566406 C 217.917969 296.359375 217.6875 296.113281 217.5 295.832031 C 217.308594 295.546875 217.171875 295.242188 217.082031 294.910156 C 216.996094 294.582031 216.964844 294.246094 216.988281 293.90625 C 217.011719 293.566406 217.089844 293.242188 217.222656 292.925781 C 217.355469 292.613281 217.535156 292.328125 217.761719 292.074219 C 217.988281 291.820312 218.25 291.609375 218.546875 291.445312 C 227.019531 286.59375 236.757812 285.5 247.480469 288.164062 C 247.878906 288.265625 248.242188 288.4375 248.570312 288.683594 C 248.898438 288.925781 249.164062 289.222656 249.375 289.574219 C 249.585938 289.925781 249.71875 290.304688 249.777344 290.707031 C 249.835938 291.113281 249.816406 291.511719 249.71875 291.910156 C 249.617188 292.304688 249.445312 292.667969 249.199219 292.996094 C 248.957031 293.324219 248.660156 293.59375 248.308594 293.800781 C 247.957031 294.011719 247.578125 294.144531 247.175781 294.203125 C 246.769531 294.265625 246.371094 294.242188 245.972656 294.144531 C 236.847656 291.835938 228.648438 292.722656 221.609375 296.753906 C 221.136719 297.035156 220.628906 297.183594 220.078125 297.191406 Z M 220.078125 297.191406 " fill-opacity="1" fill-rule="nonzero"/><path fill="#fe9780" d="M 486.125 520.796875 C 432.097656 569.113281 378.070312 569.113281 324.042969 520.796875 L 328.566406 482.90625 L 342.273438 369.253906 L 342.328125 368.707031 L 468.90625 368.707031 L 477.785156 447.25 Z M 486.125 520.796875 " fill-opacity="1" fill-rule="nonzero"/><path fill="#aa534f" d="M 477.816406 447.257812 C 477.816406 447.257812 459.167969 475.324219 396 483.617188 C 373.5 486.445312 351.035156 486.207031 328.601562 482.90625 L 342.308594 369.253906 L 434.769531 389.144531 Z M 477.816406 447.257812 " fill-opacity="1" fill-rule="nonzero"/><path fill="#fe9780" d="M 509.394531 99.960938 L 385.113281 106.941406 L 260.796875 113.925781 C 260.796875 113.925781 229.238281 291.675781 266.261719 379.789062 C 317.855469 502.523438 496.148438 492.511719 533.664062 364.773438 C 560.660156 273.0625 509.394531 99.960938 509.394531 99.960938 Z M 509.394531 99.960938 " fill-opacity="1" fill-rule="nonzero"/><path fill="#302545" d="M 346.558594 265.242188 C 346.625 266.378906 346.617188 267.507812 346.542969 268.632812 C 346.46875 269.753906 346.324219 270.847656 346.113281 271.914062 C 345.90625 272.980469 345.628906 273.996094 345.292969 274.964844 C 344.953125 275.929688 344.558594 276.832031 344.105469 277.664062 C 343.652344 278.492188 343.148438 279.242188 342.601562 279.90625 C 342.050781 280.570312 341.460938 281.140625 340.835938 281.609375 C 340.207031 282.082031 339.554688 282.449219 338.878906 282.710938 C 338.199219 282.96875 337.507812 283.121094 336.804688 283.160156 C 336.097656 283.199219 335.394531 283.128906 334.691406 282.945312 C 333.988281 282.761719 333.300781 282.46875 332.625 282.070312 C 331.949219 281.671875 331.300781 281.175781 330.679688 280.574219 C 330.058594 279.976562 329.476562 279.289062 328.933594 278.511719 C 328.390625 277.738281 327.894531 276.886719 327.453125 275.964844 C 327.007812 275.039062 326.621094 274.0625 326.292969 273.027344 C 325.964844 271.992188 325.699219 270.917969 325.5 269.8125 C 325.300781 268.703125 325.167969 267.582031 325.105469 266.445312 C 325.039062 265.308594 325.046875 264.179688 325.121094 263.054688 C 325.195312 261.933594 325.339844 260.839844 325.546875 259.773438 C 325.757812 258.707031 326.035156 257.691406 326.371094 256.722656 C 326.710938 255.757812 327.105469 254.855469 327.558594 254.023438 C 328.011719 253.191406 328.511719 252.445312 329.0625 251.78125 C 329.613281 251.117188 330.203125 250.546875 330.828125 250.074219 C 331.457031 249.605469 332.109375 249.238281 332.785156 248.976562 C 333.464844 248.71875 334.15625 248.566406 334.859375 248.527344 C 335.566406 248.488281 336.269531 248.558594 336.972656 248.742188 C 337.675781 248.925781 338.363281 249.214844 339.039062 249.617188 C 339.714844 250.015625 340.363281 250.511719 340.984375 251.113281 C 341.605469 251.710938 342.1875 252.398438 342.730469 253.171875 C 343.273438 253.949219 343.769531 254.800781 344.210938 255.722656 C 344.65625 256.644531 345.042969 257.625 345.371094 258.660156 C 345.699219 259.695312 345.964844 260.769531 346.164062 261.875 C 346.363281 262.984375 346.496094 264.105469 346.558594 265.242188 Z M 346.558594 265.242188 " fill-opacity="1" fill-rule="nonzero"/><path fill="#302545" d="M 469.171875 258.367188 C 469.234375 259.503906 469.230469 260.632812 469.15625 261.757812 C 469.082031 262.878906 468.9375 263.972656 468.726562 265.039062 C 468.515625 266.105469 468.242188 267.121094 467.902344 268.089844 C 467.566406 269.054688 467.171875 269.957031 466.71875 270.785156 C 466.265625 271.617188 465.761719 272.367188 465.210938 273.03125 C 464.660156 273.695312 464.074219 274.265625 463.449219 274.734375 C 462.820312 275.207031 462.167969 275.574219 461.488281 275.835938 C 460.8125 276.09375 460.121094 276.246094 459.414062 276.285156 C 458.710938 276.324219 458.007812 276.25 457.304688 276.070312 C 456.601562 275.886719 455.910156 275.59375 455.234375 275.195312 C 454.5625 274.796875 453.914062 274.300781 453.292969 273.699219 C 452.671875 273.101562 452.089844 272.414062 451.546875 271.636719 C 451.003906 270.863281 450.507812 270.011719 450.0625 269.089844 C 449.621094 268.164062 449.234375 267.1875 448.90625 266.152344 C 448.574219 265.113281 448.3125 264.042969 448.113281 262.9375 C 447.910156 261.828125 447.78125 260.707031 447.714844 259.570312 C 447.652344 258.433594 447.65625 257.304688 447.734375 256.179688 C 447.808594 255.058594 447.949219 253.964844 448.160156 252.898438 C 448.371094 251.832031 448.644531 250.816406 448.984375 249.847656 C 449.324219 248.878906 449.71875 247.980469 450.171875 247.148438 C 450.625 246.316406 451.125 245.570312 451.675781 244.90625 C 452.226562 244.238281 452.816406 243.671875 453.441406 243.199219 C 454.066406 242.730469 454.71875 242.363281 455.398438 242.101562 C 456.078125 241.84375 456.769531 241.691406 457.472656 241.652344 C 458.175781 241.613281 458.882812 241.683594 459.585938 241.867188 C 460.289062 242.050781 460.976562 242.339844 461.652344 242.738281 C 462.328125 243.140625 462.976562 243.636719 463.597656 244.238281 C 464.21875 244.835938 464.800781 245.523438 465.34375 246.296875 C 465.886719 247.074219 466.378906 247.925781 466.824219 248.847656 C 467.269531 249.769531 467.65625 250.75 467.984375 251.785156 C 468.3125 252.820312 468.578125 253.894531 468.777344 255 C 468.976562 256.109375 469.109375 257.230469 469.171875 258.367188 Z M 469.171875 258.367188 " fill-opacity="1" fill-rule="nonzero"/><path fill="#db6356" d="M 399.429688 340.785156 C 396.933594 340.84375 394.511719 340.4375 392.164062 339.570312 C 389.820312 338.703125 387.71875 337.4375 385.855469 335.769531 C 382.5 332.609375 375.753906 323.386719 385.503906 305.78125 C 392.578125 293.039062 390.632812 273.859375 390.609375 273.664062 C 390.566406 273.257812 390.601562 272.859375 390.71875 272.464844 C 390.835938 272.074219 391.019531 271.71875 391.277344 271.398438 C 391.535156 271.082031 391.84375 270.824219 392.203125 270.628906 C 392.5625 270.433594 392.945312 270.316406 393.355469 270.273438 C 393.761719 270.230469 394.160156 270.265625 394.550781 270.382812 C 394.945312 270.5 395.300781 270.6875 395.617188 270.945312 C 395.933594 271.203125 396.191406 271.511719 396.386719 271.871094 C 396.582031 272.230469 396.699219 272.613281 396.742188 273.019531 C 396.828125 273.882812 398.929688 294.339844 390.894531 308.765625 C 385.503906 318.503906 385.210938 326.710938 390.074219 331.277344 C 394.71875 335.648438 403.257812 335.726562 409.925781 331.476562 C 410.269531 331.296875 410.628906 331.191406 411.015625 331.148438 C 411.398438 331.109375 411.773438 331.140625 412.144531 331.242188 C 412.519531 331.34375 412.859375 331.507812 413.167969 331.738281 C 413.476562 331.964844 413.734375 332.242188 413.941406 332.570312 C 414.148438 332.894531 414.285156 333.246094 414.359375 333.625 C 414.433594 334.003906 414.4375 334.382812 414.367188 334.761719 C 414.300781 335.140625 414.167969 335.492188 413.964844 335.820312 C 413.765625 336.152344 413.511719 336.433594 413.203125 336.664062 C 411.148438 337.988281 408.953125 339 406.609375 339.703125 C 404.269531 340.402344 401.875 340.765625 399.429688 340.785156 Z M 399.429688 340.785156 " fill-opacity="1" fill-rule="nonzero"/><path fill="#db6356" d="M 420.15625 419.347656 C 419.777344 419.347656 419.410156 419.28125 419.058594 419.144531 C 418.703125 419.007812 418.386719 418.816406 418.105469 418.5625 C 417.820312 418.308594 417.59375 418.015625 417.421875 417.675781 C 417.246094 417.339844 417.140625 416.984375 417.097656 416.609375 C 417.054688 416.230469 417.082031 415.859375 417.175781 415.492188 C 417.273438 415.125 417.429688 414.789062 417.648438 414.480469 C 417.867188 414.171875 418.136719 413.914062 418.453125 413.703125 C 418.765625 413.492188 419.109375 413.34375 419.480469 413.261719 C 431.503906 410.53125 442.027344 402.203125 445.929688 398.179688 C 446.214844 397.886719 446.546875 397.660156 446.921875 397.496094 C 447.296875 397.335938 447.691406 397.25 448.097656 397.246094 C 448.507812 397.238281 448.902344 397.3125 449.28125 397.460938 C 449.664062 397.613281 450 397.832031 450.292969 398.113281 C 450.585938 398.398438 450.8125 398.730469 450.976562 399.105469 C 451.136719 399.480469 451.222656 399.871094 451.230469 400.28125 C 451.234375 400.691406 451.164062 401.085938 451.011719 401.464844 C 450.859375 401.84375 450.644531 402.183594 450.359375 402.476562 C 445.984375 406.957031 434.257812 416.222656 420.84375 419.273438 C 420.617188 419.320312 420.386719 419.34375 420.15625 419.347656 Z M 420.15625 419.347656 " fill-opacity="1" fill-rule="nonzero"/><path fill="#302545" d="M 310.039062 230.070312 C 308.714844 230.707031 307.65625 229.351562 308.015625 227.886719 C 312.390625 209.699219 337.597656 202.226562 347.738281 210.890625 C 357.207031 218.980469 337.902344 218.707031 323.691406 224.203125 C 317.066406 226.726562 312.671875 228.804688 310.039062 230.070312 Z M 310.039062 230.070312 " fill-opacity="1" fill-rule="nonzero"/><path fill="#302545" d="M 475.859375 220.761719 C 477.238281 221.242188 478.144531 219.777344 477.621094 218.335938 C 471.289062 200.738281 445.351562 196.140625 436.246094 205.886719 C 427.753906 214.992188 446.871094 212.5625 461.648438 216.433594 C 468.480469 218.226562 473.09375 219.796875 475.859375 220.761719 Z M 475.859375 220.761719 " fill-opacity="1" fill-rule="nonzero"/><path fill="#3d2031" d="M 250.957031 301.191406 C 277.707031 243.851562 280.339844 190.816406 269.320312 113.445312 L 233.304688 104.703125 Z M 250.957031 301.191406 " fill-opacity="1" fill-rule="nonzero"/><path fill="#3d2031" d="M 541.335938 284.886719 C 508.324219 230.902344 499.796875 178.488281 502.050781 100.375 L 536.863281 87.621094 Z M 541.335938 284.886719 " fill-opacity="1" fill-rule="nonzero"/><path fill="#f7816d" d="M 338.292969 308.84375 C 338.3125 309.160156 338.289062 309.480469 338.226562 309.800781 C 338.164062 310.125 338.0625 310.445312 337.917969 310.765625 C 337.777344 311.085938 337.59375 311.40625 337.375 311.722656 C 337.152344 312.039062 336.894531 312.355469 336.597656 312.667969 C 336.300781 312.976562 335.964844 313.285156 335.59375 313.585938 C 335.222656 313.890625 334.820312 314.183594 334.378906 314.476562 C 333.9375 314.765625 333.464844 315.046875 332.957031 315.324219 C 332.453125 315.597656 331.914062 315.863281 331.347656 316.121094 C 330.78125 316.378906 330.1875 316.625 329.566406 316.863281 C 328.941406 317.101562 328.296875 317.328125 327.625 317.542969 C 326.953125 317.757812 326.257812 317.960938 325.546875 318.148438 C 324.832031 318.339844 324.097656 318.519531 323.347656 318.683594 C 322.597656 318.847656 321.832031 318.996094 321.054688 319.132812 C 320.273438 319.269531 319.484375 319.390625 318.683594 319.496094 C 317.882812 319.605469 317.078125 319.695312 316.261719 319.773438 C 315.449219 319.851562 314.632812 319.910156 313.8125 319.957031 C 312.992188 320.003906 312.175781 320.035156 311.355469 320.046875 C 310.539062 320.0625 309.726562 320.0625 308.921875 320.046875 C 308.113281 320.027344 307.3125 319.996094 306.523438 319.945312 C 305.734375 319.898438 304.957031 319.835938 304.195312 319.753906 C 303.429688 319.675781 302.683594 319.582031 301.953125 319.472656 C 301.21875 319.363281 300.507812 319.238281 299.816406 319.101562 C 299.125 318.960938 298.457031 318.808594 297.8125 318.644531 C 297.167969 318.476562 296.550781 318.296875 295.957031 318.105469 C 295.367188 317.914062 294.800781 317.707031 294.269531 317.492188 C 293.734375 317.277344 293.234375 317.046875 292.761719 316.808594 C 292.292969 316.570312 291.855469 316.320312 291.453125 316.0625 C 291.050781 315.804688 290.6875 315.535156 290.355469 315.257812 C 290.027344 314.984375 289.734375 314.699219 289.476562 314.410156 C 289.222656 314.117188 289.007812 313.820312 288.828125 313.519531 C 288.652344 313.214844 288.515625 312.90625 288.417969 312.59375 C 288.320312 312.285156 288.261719 311.96875 288.242188 311.648438 C 288.226562 311.332031 288.246094 311.011719 288.308594 310.691406 C 288.371094 310.371094 288.476562 310.050781 288.617188 309.730469 C 288.757812 309.40625 288.941406 309.089844 289.164062 308.769531 C 289.382812 308.453125 289.640625 308.140625 289.9375 307.828125 C 290.234375 307.515625 290.570312 307.210938 290.941406 306.90625 C 291.3125 306.605469 291.71875 306.308594 292.15625 306.019531 C 292.597656 305.730469 293.070312 305.445312 293.578125 305.171875 C 294.082031 304.894531 294.621094 304.628906 295.1875 304.371094 C 295.753906 304.117188 296.347656 303.867188 296.972656 303.628906 C 297.59375 303.394531 298.238281 303.167969 298.910156 302.953125 C 299.582031 302.738281 300.277344 302.535156 300.992188 302.34375 C 301.703125 302.152344 302.4375 301.976562 303.1875 301.8125 C 303.9375 301.648438 304.703125 301.496094 305.480469 301.363281 C 306.261719 301.226562 307.050781 301.105469 307.851562 300.996094 C 308.652344 300.890625 309.457031 300.796875 310.273438 300.71875 C 311.085938 300.644531 311.902344 300.582031 312.722656 300.535156 C 313.542969 300.492188 314.359375 300.460938 315.179688 300.445312 C 315.996094 300.429688 316.808594 300.433594 317.617188 300.449219 C 318.421875 300.464844 319.222656 300.5 320.011719 300.546875 C 320.800781 300.59375 321.578125 300.660156 322.339844 300.738281 C 323.105469 300.816406 323.851562 300.910156 324.585938 301.019531 C 325.316406 301.132812 326.027344 301.253906 326.71875 301.394531 C 327.410156 301.53125 328.078125 301.683594 328.722656 301.851562 C 329.367188 302.015625 329.984375 302.195312 330.578125 302.386719 C 331.171875 302.582031 331.734375 302.785156 332.265625 303 C 332.800781 303.21875 333.300781 303.445312 333.773438 303.683594 C 334.242188 303.925781 334.679688 304.171875 335.082031 304.433594 C 335.484375 304.691406 335.847656 304.957031 336.179688 305.234375 C 336.507812 305.511719 336.800781 305.792969 337.058594 306.085938 C 337.3125 306.375 337.527344 306.671875 337.707031 306.976562 C 337.882812 307.28125 338.019531 307.585938 338.117188 307.898438 C 338.21875 308.210938 338.273438 308.527344 338.292969 308.84375 Z M 338.292969 308.84375 " fill-opacity="1" fill-rule="nonzero"/><path fill="#f7816d" d="M 508.832031 299.289062 C 508.847656 299.609375 508.824219 299.925781 508.761719 300.25 C 508.699219 300.570312 508.597656 300.890625 508.457031 301.210938 C 508.3125 301.53125 508.132812 301.851562 507.910156 302.167969 C 507.691406 302.488281 507.429688 302.800781 507.132812 303.113281 C 506.835938 303.425781 506.503906 303.730469 506.132812 304.03125 C 505.761719 304.335938 505.355469 304.632812 504.914062 304.921875 C 504.476562 305.210938 504 305.492188 503.496094 305.769531 C 502.988281 306.042969 502.453125 306.308594 501.886719 306.566406 C 501.320312 306.824219 500.722656 307.070312 500.101562 307.308594 C 499.480469 307.546875 498.832031 307.773438 498.160156 307.988281 C 497.488281 308.203125 496.796875 308.40625 496.082031 308.59375 C 495.367188 308.785156 494.636719 308.964844 493.886719 309.128906 C 493.132812 309.292969 492.371094 309.441406 491.589844 309.578125 C 490.8125 309.714844 490.023438 309.835938 489.222656 309.941406 C 488.421875 310.050781 487.613281 310.140625 486.800781 310.21875 C 485.984375 310.296875 485.167969 310.359375 484.351562 310.402344 C 483.53125 310.449219 482.710938 310.480469 481.894531 310.496094 C 481.078125 310.507812 480.265625 310.507812 479.457031 310.492188 C 478.648438 310.472656 477.851562 310.441406 477.0625 310.394531 C 476.273438 310.34375 475.496094 310.28125 474.730469 310.203125 C 473.96875 310.121094 473.21875 310.027344 472.488281 309.917969 C 471.757812 309.808594 471.046875 309.683594 470.355469 309.546875 C 469.664062 309.40625 468.996094 309.253906 468.351562 309.089844 C 467.707031 308.921875 467.085938 308.742188 466.496094 308.550781 C 465.902344 308.359375 465.339844 308.15625 464.804688 307.9375 C 464.273438 307.722656 463.769531 307.492188 463.300781 307.253906 C 462.828125 307.015625 462.394531 306.765625 461.992188 306.507812 C 461.589844 306.25 461.222656 305.980469 460.894531 305.707031 C 460.5625 305.429688 460.269531 305.144531 460.015625 304.855469 C 459.761719 304.5625 459.542969 304.265625 459.367188 303.964844 C 459.191406 303.660156 459.050781 303.351562 458.953125 303.042969 C 458.855469 302.730469 458.796875 302.414062 458.78125 302.097656 C 458.761719 301.777344 458.785156 301.457031 458.847656 301.136719 C 458.910156 300.816406 459.011719 300.496094 459.15625 300.175781 C 459.296875 299.855469 459.476562 299.535156 459.699219 299.214844 C 459.921875 298.898438 460.179688 298.585938 460.476562 298.273438 C 460.773438 297.960938 461.105469 297.65625 461.476562 297.351562 C 461.847656 297.050781 462.253906 296.753906 462.695312 296.464844 C 463.136719 296.175781 463.609375 295.890625 464.113281 295.617188 C 464.621094 295.34375 465.15625 295.074219 465.722656 294.816406 C 466.292969 294.5625 466.886719 294.3125 467.507812 294.078125 C 468.128906 293.839844 468.777344 293.613281 469.449219 293.398438 C 470.121094 293.183594 470.8125 292.980469 471.527344 292.789062 C 472.242188 292.597656 472.976562 292.421875 473.726562 292.257812 C 474.476562 292.09375 475.238281 291.945312 476.019531 291.808594 C 476.796875 291.671875 477.589844 291.550781 478.386719 291.441406 C 479.1875 291.335938 479.996094 291.242188 480.808594 291.167969 C 481.625 291.089844 482.441406 291.027344 483.261719 290.980469 C 484.078125 290.9375 484.898438 290.90625 485.714844 290.890625 C 486.53125 290.875 487.34375 290.878906 488.152344 290.894531 C 488.960938 290.910156 489.757812 290.945312 490.546875 290.992188 C 491.335938 291.042969 492.113281 291.105469 492.878906 291.183594 C 493.640625 291.261719 494.390625 291.359375 495.121094 291.46875 C 495.851562 291.578125 496.5625 291.699219 497.253906 291.839844 C 497.945312 291.976562 498.613281 292.128906 499.257812 292.296875 C 499.90625 292.460938 500.523438 292.640625 501.113281 292.832031 C 501.707031 293.027344 502.269531 293.230469 502.804688 293.449219 C 503.335938 293.664062 503.839844 293.890625 504.308594 294.132812 C 504.78125 294.371094 505.214844 294.617188 505.617188 294.878906 C 506.019531 295.136719 506.386719 295.402344 506.714844 295.679688 C 507.046875 295.957031 507.339844 296.238281 507.59375 296.53125 C 507.847656 296.820312 508.066406 297.117188 508.242188 297.421875 C 508.421875 297.726562 508.558594 298.03125 508.65625 298.34375 C 508.753906 298.65625 508.8125 298.972656 508.832031 299.289062 Z M 508.832031 299.289062 " fill-opacity="1" fill-rule="nonzero"/><path fill="#f7f7f7" d="M 448.90625 346.9375 C 448.90625 346.9375 449.703125 363.703125 439.261719 378.191406 C 433.699219 385.941406 424.921875 393.035156 411.105469 396.585938 C 399.027344 399.699219 389.179688 398.113281 381.382812 394.542969 C 364.878906 386.96875 357.5 370.5 357.5 370.5 C 387.144531 371.285156 417.75 364.128906 448.90625 346.9375 Z M 448.90625 346.9375 " fill-opacity="1" fill-rule="nonzero"/><path fill="#f04847" d="M 379.636719 5.726562 C 283.628906 11.113281 209.671875 84.410156 214.449219 169.441406 L 562.117188 149.921875 C 557.339844 64.890625 475.640625 0.328125 379.636719 5.726562 Z M 379.636719 5.726562 " fill-opacity="1" fill-rule="nonzero"/><path fill="#d13533" d="M 561.304688 189.15625 C 445.941406 169.179688 332.058594 175.574219 219.652344 208.347656 C 210.90625 210.890625 202.03125 204.050781 200.304688 193.386719 L 195.988281 166.609375 C 194.421875 156.875 199.417969 147.488281 207.421875 145.246094 C 322.128906 113.183594 448.804688 106.066406 566.390625 125.09375 C 574.597656 126.417969 580.597656 135.191406 580.152344 145.039062 L 578.882812 172.128906 C 578.335938 182.925781 570.28125 190.707031 561.304688 189.15625 Z M 561.304688 189.15625 " fill-opacity="1" fill-rule="nonzero"/><path fill="#d13533" d="M 324.359375 121.136719 C 324.035156 121.136719 323.722656 121.078125 323.425781 120.953125 C 323.125 120.832031 322.859375 120.65625 322.632812 120.429688 C 322.402344 120.203125 322.222656 119.941406 322.09375 119.644531 C 321.96875 119.347656 321.902344 119.035156 321.898438 118.710938 C 321.199219 62.59375 347.707031 24.09375 348.832031 22.476562 C 349.019531 22.210938 349.253906 21.992188 349.527344 21.816406 C 349.804688 21.644531 350.101562 21.527344 350.421875 21.472656 C 350.746094 21.417969 351.066406 21.425781 351.382812 21.496094 C 351.703125 21.566406 351.992188 21.695312 352.261719 21.882812 C 352.527344 22.070312 352.75 22.300781 352.925781 22.578125 C 353.097656 22.851562 353.214844 23.148438 353.273438 23.46875 C 353.328125 23.792969 353.320312 24.113281 353.25 24.429688 C 353.179688 24.75 353.054688 25.042969 352.867188 25.308594 C 352.605469 25.691406 326.140625 64.179688 326.828125 118.648438 C 326.832031 118.972656 326.773438 119.289062 326.648438 119.589844 C 326.527344 119.894531 326.351562 120.164062 326.125 120.394531 C 325.894531 120.628906 325.632812 120.808594 325.332031 120.9375 C 325.03125 121.066406 324.71875 121.132812 324.390625 121.136719 Z M 324.359375 121.136719 " fill-opacity="1" fill-rule="nonzero"/><path fill="#d13533" d="M 252.457031 137.890625 C 252.296875 137.90625 252.136719 137.90625 251.972656 137.890625 C 251.652344 137.828125 251.359375 137.707031 251.085938 137.527344 C 250.8125 137.347656 250.585938 137.121094 250.402344 136.851562 C 250.222656 136.582031 250.097656 136.285156 250.03125 135.964844 C 249.96875 135.648438 249.964844 135.328125 250.027344 135.007812 C 263.746094 65.195312 318.992188 28.609375 319.550781 28.238281 C 319.824219 28.070312 320.121094 27.960938 320.4375 27.90625 C 320.753906 27.855469 321.070312 27.863281 321.382812 27.9375 C 321.699219 28.007812 321.988281 28.132812 322.25 28.320312 C 322.515625 28.503906 322.734375 28.730469 322.910156 29 C 323.085938 29.269531 323.203125 29.5625 323.265625 29.878906 C 323.324219 30.195312 323.324219 30.511719 323.261719 30.824219 C 323.199219 31.140625 323.078125 31.433594 322.902344 31.703125 C 322.722656 31.972656 322.503906 32.195312 322.238281 32.378906 C 321.691406 32.730469 268.175781 68.257812 254.871094 135.957031 C 254.808594 136.230469 254.703125 136.488281 254.554688 136.726562 C 254.40625 136.964844 254.222656 137.171875 254.003906 137.347656 C 253.78125 137.523438 253.539062 137.65625 253.273438 137.75 C 253.011719 137.84375 252.738281 137.890625 252.457031 137.890625 Z M 252.457031 137.890625 " fill-opacity="1" fill-rule="nonzero"/><path fill="#d13533" d="M 447.210938 114.242188 C 446.90625 114.242188 446.617188 114.1875 446.332031 114.078125 C 446.050781 113.972656 445.796875 113.816406 445.570312 113.613281 C 445.34375 113.414062 445.164062 113.179688 445.023438 112.910156 C 444.882812 112.640625 444.796875 112.359375 444.761719 112.058594 C 439.296875 57.863281 408.691406 22.578125 408.425781 22.226562 C 408.203125 21.984375 408.035156 21.707031 407.921875 21.394531 C 407.8125 21.082031 407.761719 20.761719 407.78125 20.429688 C 407.796875 20.097656 407.875 19.785156 408.019531 19.484375 C 408.164062 19.1875 408.359375 18.929688 408.605469 18.707031 C 408.855469 18.488281 409.136719 18.324219 409.449219 18.21875 C 409.761719 18.113281 410.085938 18.070312 410.414062 18.089844 C 410.746094 18.113281 411.058594 18.199219 411.355469 18.347656 C 411.652344 18.496094 411.90625 18.695312 412.121094 18.949219 C 413.421875 20.421875 444.074219 55.710938 449.667969 111.554688 C 449.703125 111.878906 449.671875 112.195312 449.578125 112.507812 C 449.484375 112.816406 449.335938 113.101562 449.132812 113.351562 C 448.925781 113.605469 448.683594 113.808594 448.394531 113.964844 C 448.109375 114.121094 447.808594 114.21875 447.484375 114.253906 Z M 447.210938 114.242188 " fill-opacity="1" fill-rule="nonzero"/><path fill="#d13533" d="M 520.554688 122.832031 C 520.019531 122.832031 519.535156 122.675781 519.101562 122.359375 C 518.667969 122.042969 518.367188 121.628906 518.207031 121.117188 C 497.371094 55.25 440.238281 26.039062 439.65625 25.722656 C 439.328125 25.601562 439.039062 25.421875 438.789062 25.175781 C 438.539062 24.933594 438.347656 24.648438 438.21875 24.320312 C 438.089844 23.996094 438.035156 23.660156 438.046875 23.308594 C 438.0625 22.960938 438.148438 22.628906 438.304688 22.316406 C 438.460938 22.003906 438.675781 21.734375 438.945312 21.515625 C 439.21875 21.292969 439.519531 21.136719 439.859375 21.042969 C 440.195312 20.953125 440.539062 20.933594 440.882812 20.988281 C 441.230469 21.039062 441.550781 21.164062 441.84375 21.351562 C 442.433594 21.648438 501.425781 51.832031 522.882812 119.707031 C 522.980469 120.019531 523.015625 120.335938 522.984375 120.660156 C 522.957031 120.984375 522.867188 121.292969 522.714844 121.582031 C 522.566406 121.871094 522.367188 122.121094 522.117188 122.332031 C 521.867188 122.542969 521.589844 122.699219 521.277344 122.800781 C 521.039062 122.84375 520.796875 122.855469 520.554688 122.832031 Z M 520.554688 122.832031 " fill-opacity="1" fill-rule="nonzero"/><path fill="#d13533" d="M 385.550781 117.269531 C 385.234375 117.269531 384.929688 117.210938 384.640625 117.09375 C 384.347656 116.976562 384.085938 116.808594 383.859375 116.59375 C 383.628906 116.378906 383.449219 116.125 383.316406 115.839844 C 383.183594 115.554688 383.109375 115.257812 383.089844 114.941406 L 377.691406 18.773438 C 377.671875 18.449219 377.71875 18.128906 377.824219 17.820312 C 377.933594 17.515625 378.097656 17.238281 378.3125 16.996094 C 378.53125 16.75 378.789062 16.558594 379.082031 16.417969 C 379.375 16.277344 379.6875 16.195312 380.011719 16.179688 C 380.339844 16.160156 380.65625 16.203125 380.964844 16.3125 C 381.273438 16.421875 381.546875 16.582031 381.792969 16.800781 C 382.035156 17.019531 382.226562 17.273438 382.371094 17.570312 C 382.511719 17.863281 382.589844 18.175781 382.609375 18.5 L 388.019531 114.667969 C 388.035156 114.996094 387.988281 115.3125 387.882812 115.621094 C 387.773438 115.929688 387.609375 116.203125 387.390625 116.449219 C 387.171875 116.691406 386.917969 116.882812 386.621094 117.027344 C 386.328125 117.167969 386.019531 117.25 385.691406 117.269531 Z M 385.550781 117.269531 " fill-opacity="1" fill-rule="nonzero"/><g clip-path="url(#fe7fc288ae)"><path fill="#006a4d" d="M 589 746.046875 C 589 750.25 585.570312 753.660156 581.335938 753.660156 L 527.695312 753.660156 C 523.460938 753.660156 520.03125 750.25 520.03125 746.046875 L 520.03125 711.777344 C 520.03125 707.570312 523.460938 704.160156 527.695312 704.160156 L 581.335938 704.160156 C 585.570312 704.160156 589 707.570312 589 711.777344 Z M 589 746.046875 " fill-opacity="1" fill-rule="nonzero"/></g><path fill="#f42a41" d="M 564.09375 727.960938 C 564.09375 728.835938 564.007812 729.699219 563.835938 730.558594 C 563.664062 731.417969 563.410156 732.25 563.074219 733.058594 C 562.734375 733.867188 562.324219 734.636719 561.835938 735.363281 C 561.34375 736.089844 560.789062 736.765625 560.167969 737.382812 C 559.542969 738 558.867188 738.554688 558.132812 739.039062 C 557.402344 739.527344 556.628906 739.9375 555.816406 740.273438 C 555 740.605469 554.164062 740.859375 553.300781 741.03125 C 552.4375 741.199219 551.5625 741.285156 550.683594 741.285156 C 549.804688 741.285156 548.929688 741.199219 548.066406 741.03125 C 547.203125 740.859375 546.363281 740.605469 545.550781 740.273438 C 544.738281 739.9375 543.964844 739.527344 543.234375 739.039062 C 542.5 738.554688 541.824219 738 541.199219 737.382812 C 540.578125 736.765625 540.023438 736.089844 539.53125 735.363281 C 539.042969 734.636719 538.628906 733.867188 538.292969 733.058594 C 537.957031 732.25 537.703125 731.417969 537.53125 730.558594 C 537.359375 729.699219 537.273438 728.835938 537.273438 727.960938 C 537.273438 727.085938 537.359375 726.21875 537.53125 725.359375 C 537.703125 724.5 537.957031 723.667969 538.292969 722.859375 C 538.628906 722.050781 539.042969 721.28125 539.53125 720.554688 C 540.023438 719.828125 540.578125 719.15625 541.199219 718.535156 C 541.824219 717.917969 542.5 717.363281 543.234375 716.878906 C 543.964844 716.390625 544.738281 715.980469 545.550781 715.648438 C 546.363281 715.3125 547.203125 715.058594 548.066406 714.886719 C 548.929688 714.71875 549.804688 714.632812 550.683594 714.632812 C 551.5625 714.632812 552.4375 714.71875 553.300781 714.886719 C 554.164062 715.058594 555 715.3125 555.816406 715.648438 C 556.628906 715.980469 557.402344 716.390625 558.132812 716.878906 C 558.867188 717.363281 559.542969 717.917969 560.167969 718.535156 C 560.789062 719.15625 561.34375 719.828125 561.835938 720.554688 C 562.324219 721.28125 562.734375 722.050781 563.074219 722.859375 C 563.410156 723.667969 563.664062 724.5 563.835938 725.359375 C 564.007812 726.21875 564.09375 727.085938 564.09375 727.960938 Z M 564.09375 727.960938 " fill-opacity="1" fill-rule="nonzero"/></svg>